<svg width="206" height="59" viewBox="0 0 206 59" fill="none" xmlns="http://www.w3.org/2000/svg">
<path d="M70.2246 41.0629L68.4033 42.6041C67.7405 43.1499 67.0197 43.6058 66.2474 43.9783C65.4237 44.3892 64.5678 44.7167 63.6797 44.9672C62.5277 45.2305 61.3436 45.346 60.1659 45.3075C58.8724 45.346 57.5917 45.1084 56.3883 44.6204C55.1913 44.1324 54.1037 43.4003 53.1963 42.4628C52.2889 41.5124 51.581 40.3887 51.1176 39.1494C50.6542 37.9164 50.4354 36.6 50.4869 35.2772C50.3775 33.2673 50.8473 31.2638 51.8448 29.5236C52.8552 28.0017 54.2645 26.7945 55.9185 26.0496C57.9456 25.1057 60.108 24.4956 62.3282 24.2388C64.7994 23.8792 67.4766 23.6223 70.3275 23.4297V23.2627C70.3919 22.5307 70.2439 21.7922 69.9028 21.1372C69.5617 20.4887 69.0404 19.9493 68.3969 19.5961C66.5692 18.8319 64.5935 18.4852 62.6114 18.5943C61.2342 18.6264 59.8634 18.8384 58.5377 19.2236C56.9803 19.6603 55.4551 20.2125 53.975 20.8739H53.1319V13.1554C54.1101 12.8664 55.6868 12.5389 57.8556 12.1408C60.0372 11.7555 62.2446 11.5629 64.4519 11.5629C69.8835 11.5629 73.8477 12.4811 76.3447 14.3112C77.5867 15.3001 78.5649 16.578 79.1956 18.0421C79.8263 19.5062 80.0902 21.0987 79.9679 22.6912V44.4599H70.2181V41.0629H70.2246ZM70.2246 36.1056V29.4401C68.5513 29.6071 67.1999 29.7548 66.1509 29.8961C65.1148 30.0117 64.0915 30.2492 63.1069 30.6088C62.3218 30.8593 61.6203 31.3345 61.099 31.983C60.5906 32.6958 60.3396 33.5627 60.3783 34.4424C60.3075 35.0268 60.3783 35.6176 60.5906 36.1698C60.803 36.7221 61.1441 37.2037 61.5881 37.5889C62.6564 38.2247 63.892 38.5201 65.1341 38.443C66.0415 38.4173 66.936 38.1926 67.7533 37.7816C68.6736 37.3899 69.5038 36.8184 70.2117 36.1056" fill="white"/>
<path d="M116.058 44.4557H106.198V41.1165C105.561 41.6495 104.841 42.2274 104.01 42.8311C103.335 43.3512 102.62 43.8135 101.867 44.2052C101.114 44.5648 100.336 44.8538 99.5313 45.0721C98.6368 45.2648 97.7294 45.3547 96.8155 45.3483C95.1294 45.3932 93.4562 44.9951 91.9567 44.2052C90.4637 43.4154 89.1895 42.2467 88.2628 40.8147C86.1648 37.8095 85.1158 33.7768 85.1158 28.7168C85.0643 26.2509 85.4247 23.7979 86.1905 21.4541C86.847 19.5084 87.8445 17.6976 89.138 16.1115C90.2706 14.7566 91.6736 13.6521 93.2503 12.8687C94.8656 12.066 96.6353 11.6486 98.4373 11.6614C99.8145 11.6165 101.192 11.7963 102.511 12.1816C103.785 12.6375 105.021 13.1833 106.218 13.819V0.134949H116.071L116.058 44.4557ZM106.198 35.6198V19.9387C105.594 19.6433 104.95 19.4378 104.287 19.3222C103.624 19.1745 102.942 19.091 102.266 19.0782C101.237 19.014 100.213 19.2066 99.2739 19.6433C98.3407 20.0799 97.5299 20.7542 96.9185 21.589C95.6185 23.6759 94.9943 26.1289 95.1423 28.5947C94.9299 30.9707 95.3997 33.353 96.5002 35.4593C97.0279 36.1977 97.7358 36.7821 98.5531 37.1545C99.3704 37.527 100.278 37.6811 101.172 37.5912C102.067 37.5848 102.955 37.4114 103.792 37.0839C104.66 36.7564 105.478 36.2876 106.205 35.7097" fill="white"/>
<path d="M141.066 41.0629L139.245 42.6041C138.582 43.1435 137.868 43.6058 137.102 43.9783C136.278 44.3892 135.409 44.7232 134.521 44.9672C133.369 45.2305 132.198 45.346 131.02 45.3075C129.727 45.346 128.44 45.1084 127.236 44.6204C126.033 44.1324 124.945 43.4003 124.038 42.4628C123.131 41.5124 122.423 40.3887 121.953 39.1494C121.49 37.9164 121.271 36.6 121.322 35.2772C121.219 33.2673 121.689 31.2703 122.68 29.5236C123.69 28.0017 125.1 26.7945 126.754 26.0496C128.774 25.1121 130.937 24.4956 133.144 24.2388C135.628 23.8792 138.286 23.6223 141.143 23.4297V23.2627C141.214 22.5307 141.066 21.7858 140.725 21.1372C140.384 20.4822 139.856 19.9493 139.213 19.5961C137.385 18.8319 135.409 18.4852 133.427 18.5943C132.05 18.6264 130.679 18.8384 129.354 19.2236C127.79 19.6603 126.252 20.2125 124.765 20.8739H123.909V13.1554C124.887 12.8664 126.464 12.5389 128.633 12.1408C130.815 11.7555 133.022 11.5629 135.229 11.5629C140.661 11.5629 144.625 12.4811 147.122 14.3112C148.383 15.2873 149.381 16.5587 150.031 18.0228C150.681 19.4869 150.964 21.0859 150.855 22.6912V44.4599H141.066V41.0629ZM141.066 36.1056V29.4401C139.393 29.6071 138.042 29.7548 136.993 29.8961C135.956 30.0117 134.933 30.2557 133.949 30.6088C133.163 30.8593 132.462 31.3345 131.941 31.983C131.432 32.6958 131.181 33.5627 131.22 34.4424C131.143 35.0204 131.207 35.6176 131.413 36.1634C131.619 36.7092 131.954 37.2037 132.391 37.5889C133.46 38.2247 134.695 38.5201 135.937 38.443C136.877 38.4366 137.803 38.2311 138.653 37.8265C139.567 37.4284 140.397 36.8633 141.098 36.1505" fill="white"/>
<path d="M195.894 44.4563V28.4797C195.894 26.9001 195.894 25.5708 195.797 24.4856C195.778 23.5866 195.61 22.694 195.295 21.8464C195.038 21.1978 194.555 20.6648 193.937 20.3502C193.191 20.0291 192.386 19.8622 191.575 19.8622C190.765 19.8622 189.96 20.0291 189.214 20.3502C188.383 20.7419 187.579 21.1978 186.826 21.7244V44.4498H176.915V28.4797C176.915 26.9129 176.915 25.5965 176.819 24.4984C176.787 23.593 176.607 22.694 176.291 21.8464C176.047 21.1914 175.558 20.652 174.933 20.3502C174.167 20.0163 173.337 19.8493 172.507 19.8686C171.67 19.8878 170.853 20.0805 170.1 20.4465C169.322 20.8446 168.569 21.3006 167.861 21.8207V44.4563H158.002V12.4711H167.861V16.0029C169.264 14.7635 170.789 13.6719 172.423 12.7601C173.904 11.9638 175.558 11.5657 177.231 11.5913C179.02 11.5528 180.79 12.028 182.321 12.9655C183.834 13.9544 185.011 15.3928 185.674 17.0881C187.302 15.5148 189.104 14.1342 191.035 12.9655C192.393 12.1629 193.912 11.6812 195.482 11.5592C197.052 11.4308 198.629 11.6684 200.09 12.2399C201.229 12.7023 202.245 13.4343 203.05 14.3654C203.951 15.4378 204.627 16.6835 205.032 18.0321C205.515 19.8236 205.74 21.673 205.695 23.5224V44.4498H195.894V44.4563Z" fill="white"/>
<path d="M19.4677 33.6767V44.4583H31.6179L22.3315 30.177L19.4677 33.6767Z" fill="white"/>
<path d="M10.9146 0H0V44.4556H10.9146V0Z" fill="white"/>
<path d="M19.4677 0V26.0903L30.8714 11.6164H43.1181L31.2254 25.7628L43.9741 44.4556H44.5854V0H19.4677Z" fill="white"/>
<path d="M5.5489 56.8789H2.30542L1.57821 58.8888H0.529228L3.48311 51.1766H4.37765L7.33153 58.8888H6.28255L5.5489 56.8789ZM2.61432 56.0441H5.24L3.92716 52.4352L2.61432 56.0441Z" fill="white"/>
<path d="M13.0455 58.8888V51.1766H15.2271C15.8964 51.1766 16.4949 51.3243 17.0097 51.6197C17.5246 51.9151 17.9236 52.3389 18.2067 52.8847C18.4899 53.4306 18.6315 54.0599 18.6379 54.7726V55.2671C18.6379 55.9927 18.4963 56.6349 18.2132 57.1807C17.9364 57.7265 17.531 58.1503 17.0097 58.4393C16.4885 58.7347 15.8835 58.8824 15.1885 58.8888H13.0455ZM14.0623 52.0178V58.0604H15.137C15.9221 58.0604 16.5335 57.8164 16.9711 57.3284C17.4087 56.8403 17.6275 56.1468 17.6275 55.2478V54.7983C17.6275 53.925 17.4216 53.2443 17.0033 52.7563C16.5914 52.2683 16.0058 52.0243 15.2528 52.0178H14.0623Z" fill="white"/>
<path d="M27.3022 57.5403L29.5096 51.1766H30.6229L27.7591 58.8888H26.8582L23.9944 51.1766H25.1013L27.3022 57.5403Z" fill="white"/>
<path d="M40.7042 55.3249H37.3513V58.0604H41.2447V58.8952H36.3345V51.1766H41.1933V52.0114H37.3577V54.4901H40.7106V55.3249H40.7042Z" fill="white"/>
<path d="M50.021 55.7744H48.2062V58.8952H47.1829V51.1766H49.7442C50.613 51.1766 51.2823 51.3757 51.7521 51.7674C52.2219 52.1655 52.46 52.737 52.46 53.4948C52.46 53.9764 52.3313 54.3938 52.0675 54.7534C51.81 55.113 51.4497 55.3762 50.9863 55.556L52.8011 58.831V58.8952H51.7071L50.021 55.7744ZM48.2062 54.9396H49.77C50.2784 54.9396 50.6774 54.8112 50.9734 54.5479C51.2759 54.2846 51.4239 53.9379 51.4239 53.5012C51.4239 53.026 51.2823 52.66 50.9927 52.4031C50.7096 52.1463 50.2977 52.0178 49.7636 52.0178H48.1997V54.9396H48.2062Z" fill="white"/>
<path d="M63.4825 52.0187H60.9984V58.8961H59.9816V52.0187H57.5039V51.184H63.4825V52.0187Z" fill="white"/>
<path d="M70.3967 58.8888H69.3799V51.1766H70.3967V58.8888Z" fill="white"/>
<path d="M79.2182 55.4553C78.343 55.2049 77.7058 54.8967 77.3068 54.5306C76.9078 54.1646 76.7148 53.7087 76.7148 53.1757C76.7148 52.5657 76.9593 52.0648 77.442 51.6731C77.9311 51.275 78.5618 51.0759 79.3405 51.0759C79.8682 51.0759 80.3444 51.1787 80.7563 51.3842C81.1746 51.5896 81.4963 51.8722 81.7216 52.2318C81.9533 52.5914 82.0691 52.9831 82.0691 53.4133H81.0459C81.0459 52.9446 80.8978 52.5785 80.6018 52.3153C80.3058 52.0456 79.8875 51.9107 79.3469 51.9107C78.8449 51.9107 78.4524 52.0199 78.1692 52.2446C77.8925 52.463 77.7509 52.7712 77.7509 53.1629C77.7509 53.4775 77.886 53.7408 78.1499 53.9656C78.4202 54.1839 78.8771 54.3765 79.5142 54.5563C80.1578 54.7361 80.6597 54.9352 81.0201 55.1535C81.3869 55.3719 81.6572 55.6223 81.8246 55.9113C82.0047 56.2002 82.0884 56.5406 82.0884 56.9323C82.0884 57.5551 81.8439 58.056 81.3548 58.4349C80.8657 58.8073 80.2157 58.9935 79.3984 58.9935C78.8707 58.9935 78.3751 58.8908 77.9118 58.6917C77.4549 58.4862 77.0945 58.2101 76.8435 57.8569C76.5925 57.5038 76.4702 57.1056 76.4702 56.6561H77.4935C77.4935 57.1249 77.6672 57.4909 78.0083 57.7606C78.3558 58.0303 78.8192 58.1652 79.3919 58.1652C79.9325 58.1652 80.3444 58.056 80.6276 57.8377C80.9172 57.6193 81.0587 57.3175 81.0587 56.9451C81.0587 56.5662 80.9236 56.2773 80.6597 56.0718C80.3959 55.8599 79.9132 55.6544 79.2182 55.4553Z" fill="white"/>
<path d="M89.1618 58.8888H88.145V51.1766H89.1618V58.8888Z" fill="white"/>
<path d="M101.647 58.8888H100.624L96.7301 52.9425V58.8888H95.7068V51.1766H96.7301L100.63 57.1486V51.1766H101.647V58.8888Z" fill="white"/>
<path d="M113.841 57.8816C113.577 58.254 113.21 58.5366 112.741 58.7228C112.271 58.909 111.73 58.9989 111.106 58.9989C110.475 58.9989 109.916 58.8512 109.426 58.5623C108.937 58.2669 108.558 57.8431 108.287 57.3037C108.023 56.7578 107.888 56.1285 107.882 55.4158V54.7415C107.882 53.5792 108.152 52.6802 108.693 52.0381C109.24 51.3959 109.999 51.0813 110.984 51.0813C111.788 51.0813 112.438 51.2868 112.934 51.7042C113.423 52.1151 113.725 52.6995 113.835 53.4508H112.818C112.625 52.4298 112.02 51.9225 110.99 51.9225C110.308 51.9225 109.787 52.1601 109.433 52.6417C109.085 53.1169 108.905 53.8104 108.899 54.7158V55.3451C108.899 56.212 109.098 56.8991 109.491 57.4128C109.89 57.9201 110.424 58.177 111.1 58.177C111.479 58.177 111.814 58.132 112.104 58.0485C112.393 57.9651 112.625 57.8238 112.818 57.6183V55.8845H111.029V55.0562H113.835V57.8816H113.841Z" fill="white"/>
<path d="M133.534 58.8888H132.511L128.618 52.9425V58.8888H127.595V51.1766H128.618L132.518 57.1486V51.1766H133.528V58.8888H133.534Z" fill="white"/>
<path d="M144.386 55.3249H141.034V58.0604H144.927V58.8952H140.017V51.1766H144.876V52.0114H141.04V54.4901H144.393V55.3249H144.386Z" fill="white"/>
<path d="M156.322 52.0187H153.838V58.8961H152.828V52.0187H150.35V51.184H156.329V52.0187H156.322Z" fill="white"/>
<path d="M163.9 56.4645L164.048 57.4791L164.267 56.5608L165.799 51.1796H166.661L168.154 56.5608L168.367 57.4919L168.528 56.4516L169.731 51.1732H170.754L168.881 58.8853H167.955L166.359 53.2666L166.236 52.6758L166.114 53.2666L164.46 58.8853H163.534L161.667 51.1732H162.684L163.9 56.4645Z" fill="white"/>
<path d="M182.503 55.2884C182.503 56.0461 182.375 56.7075 182.124 57.2726C181.866 57.8313 181.506 58.2615 181.042 58.5569C180.579 58.8523 180.032 59 179.408 59C178.796 59 178.256 58.8523 177.786 58.5569C177.316 58.2551 176.949 57.8313 176.686 57.279C176.428 56.7268 176.293 56.0846 176.287 55.359V54.8004C176.287 54.0619 176.415 53.4005 176.673 52.8354C176.93 52.2639 177.297 51.8337 177.767 51.5318C178.243 51.23 178.784 51.0759 179.388 51.0759C180.006 51.0759 180.553 51.2236 181.023 51.5254C181.499 51.8208 181.86 52.2575 182.117 52.8226C182.375 53.3876 182.497 54.049 182.497 54.8004V55.2884H182.503ZM181.486 54.7875C181.486 53.8757 181.3 53.1693 180.933 52.6813C180.566 52.1933 180.051 51.9428 179.388 51.9428C178.745 51.9428 178.236 52.1868 177.863 52.6813C177.496 53.1693 177.303 53.8436 177.297 54.7169V55.282C177.297 56.1681 177.484 56.8681 177.857 57.3753C178.23 57.8826 178.745 58.1331 179.401 58.1331C180.058 58.1331 180.573 57.8955 180.933 57.4203C181.293 56.9387 181.48 56.2516 181.493 55.359V54.7875H181.486Z" fill="white"/>
<path d="M191.541 55.7744H189.726V58.8952H188.703V51.1766H191.264C192.133 51.1766 192.802 51.3757 193.272 51.7674C193.742 52.1655 193.98 52.737 193.98 53.4948C193.98 53.9764 193.851 54.3938 193.587 54.7534C193.33 55.113 192.969 55.3762 192.506 55.556L194.321 58.831V58.8952H193.227L191.541 55.7744ZM189.726 54.9396H191.29C191.798 54.9396 192.197 54.8112 192.493 54.5479C192.796 54.2846 192.944 53.9379 192.944 53.5012C192.944 53.026 192.802 52.66 192.512 52.4031C192.229 52.1463 191.817 52.0178 191.283 52.0178H189.726V54.9396Z" fill="white"/>
<path d="M202.042 55.3056L201.096 56.2881V58.8952H200.079V51.1766H201.096V54.991L204.533 51.1766H205.762L202.718 54.58L206 58.8888H204.777L202.042 55.3056Z" fill="white"/>
</svg>
