<svg width="26" height="27" viewBox="0 0 26 27" fill="none" xmlns="http://www.w3.org/2000/svg">
<path fill-rule="evenodd" clip-rule="evenodd" d="M24.8951 13.3547C24.8951 14.2609 24.799 15.1418 24.6178 15.994C25.0812 16.9483 25.3421 18.0245 25.3421 19.1611C25.3421 23.1011 22.2197 26.2935 18.3667 26.2935C17.1735 26.2935 16.0512 25.7828 15.0685 25.2436C14.3553 25.3784 13.6192 25.4495 12.8666 25.4495C6.22377 25.4495 0.839488 20.1481 0.839488 13.3547C0.839488 12.5082 0.923026 11.6812 1.083 10.883C0.475382 9.82314 0.124695 8.59098 0.124695 7.27544C0.124695 3.33538 3.24712 0.142162 7.10088 0.142162C8.46424 0.142162 9.73627 0.544175 10.8111 1.23708C11.4794 1.11942 12.1667 1.0573 12.8673 1.0573C19.5109 1.0573 24.8951 6.56378 24.8951 13.3547ZM16.7183 20.0941C17.7064 19.701 18.4569 19.1542 18.9697 18.4586C19.4809 17.7621 19.7385 16.9767 19.7382 16.104C19.7382 15.3743 19.5893 14.7585 19.2942 14.2565C18.9991 13.7529 18.5864 13.3357 18.0596 13.0066C17.532 12.68 16.8913 12.3999 16.1399 12.1697C15.3876 11.9403 14.5474 11.7292 13.6211 11.5389C12.8794 11.3743 12.3474 11.2505 12.0261 11.1649C11.7049 11.0777 11.3862 10.9597 11.0737 10.8084C10.7577 10.658 10.5104 10.4792 10.3319 10.2673C10.1535 10.0571 10.0621 9.80614 10.0621 9.51857C10.0621 9.05236 10.3267 8.65178 10.8543 8.32104C11.3819 7.98783 12.0767 7.82324 12.936 7.82324C13.8641 7.82324 14.5362 7.97615 14.9559 8.28197C15.3755 8.58696 15.7333 9.01247 16.0337 9.55765C16.2645 9.93915 16.4795 10.2134 16.678 10.3813C16.8765 10.5482 17.1664 10.633 17.5487 10.633C17.9674 10.633 18.3175 10.4926 18.5978 10.2134C18.8781 9.93495 19.0174 9.61908 19.0174 9.27091C19.0174 8.89196 18.9051 8.49805 18.6805 8.09911C18.4567 7.69771 18.1007 7.31548 17.614 6.9506C17.1282 6.58571 16.5179 6.29322 15.7805 6.07212C15.043 5.85357 14.1689 5.74302 13.159 5.74302C11.8958 5.74302 10.7952 5.90844 9.86018 6.24082C8.92344 6.5733 8.21038 7.04782 7.71671 7.66613C7.22219 8.28361 6.97583 8.98919 6.97583 9.78532C6.97583 10.6189 7.20918 11.317 7.6776 11.8804C8.1443 12.4414 8.77807 12.8843 9.57471 13.211C10.3704 13.535 11.3603 13.821 12.5418 14.0628C13.4263 14.2398 14.1315 14.4077 14.6583 14.5664C15.1859 14.7234 15.616 14.952 15.9494 15.2512C16.2821 15.5479 16.4492 15.9393 16.4492 16.4181C16.4492 17.0223 16.1393 17.5284 15.5229 17.9315C14.9047 18.3362 14.1021 18.5373 13.1147 18.5373C12.3974 18.5373 11.8167 18.436 11.3744 18.2374C10.9339 18.0371 10.5908 17.7811 10.3488 17.4728C10.1041 17.1645 9.87864 16.7797 9.66881 16.3185C9.4982 15.9304 9.2901 15.6387 9.04633 15.4417C8.80427 15.2431 8.5057 15.1458 8.15396 15.1458C7.72121 15.1458 7.36334 15.2713 7.08304 15.5264C6.80273 15.7783 6.66253 16.0825 6.66253 16.4365C6.66253 17.0491 6.89665 17.6789 7.36334 18.3256C7.83176 18.9722 8.44029 19.4908 9.18729 19.878C10.2434 20.4174 11.5825 20.6867 13.2062 20.6867C14.56 20.6867 15.7301 20.4905 16.7183 20.0941Z" fill="white"/>
</svg>
